<svg width="32" height="40" viewBox="0 0 32 40" fill="none" xmlns="http://www.w3.org/2000/svg">
<g clip-path="url(#clip0_18_3)">
<path d="M6 34.0016H14.644C15.1963 34.0016 15.644 33.5538 15.644 33.0016V28.4249C15.644 26.9698 16.8281 25.7858 18.2832 25.7858C19.7383 25.7858 20.9224 26.9698 20.9224 28.4249V33.0016C20.9224 33.5538 21.3701 34.0016 21.9224 34.0016H30.5664C31.1187 34.0016 31.5664 33.5538 31.5664 33.0016V18.4156C31.5664 16.964 30.9458 15.5768 29.8633 14.6095L28.4878 13.3802V9.03772C28.4878 8.48547 28.04 8.03772 27.4878 8.03772C26.9355 8.03772 26.4878 8.48547 26.4878 9.03772V11.5927L21.6851 7.30042C19.7461 5.56653 16.8213 5.56653 14.8813 7.30042L6.70312 14.6095C5.62061 15.5768 5 16.964 5 18.4156V33.0016C5 33.5538 5.44775 34.0016 6 34.0016Z" fill="white"/>
</g>
<defs>
<clipPath id="clip0_18_3">
<rect width="32" height="40" fill="white"/>
</clipPath>
</defs>
</svg>
